<svg width="19" height="17" viewBox="0 0 19 17" fill="none" xmlns="http://www.w3.org/2000/svg">
<path d="M7.03866 2.75235H4.57732V0.291016H3.34665V2.75235H0.885315V3.98302H3.34665V6.44436H4.57732V3.98302H7.03866V2.75235Z" fill="white"/>
<path d="M18.0648 9.27859L16.2188 4.97125C16.1715 4.86054 16.0926 4.76618 15.9921 4.69989C15.8915 4.63359 15.7738 4.59829 15.6533 4.59836H13.8073V3.36769C13.8073 3.20449 13.7425 3.04798 13.6271 2.93258C13.5117 2.81718 13.3552 2.75235 13.192 2.75235H8.88466V3.98302H12.5767V11.7092C12.2963 11.872 12.0509 12.0887 11.8547 12.3468C11.6584 12.6049 11.5153 12.8993 11.4334 13.213H7.56662C7.43276 12.6849 7.12663 12.2165 6.69667 11.882C6.26671 11.5474 5.73746 11.3657 5.19266 11.3657C4.64785 11.3657 4.1186 11.5474 3.68864 11.882C3.25868 12.2165 2.95255 12.6849 2.8187 13.213H2.11598V7.67503H0.885315V13.8284C0.885315 13.9916 0.950145 14.1481 1.06554 14.2635C1.18094 14.3789 1.33745 14.4437 1.50065 14.4437H2.8187C2.95255 14.9718 3.25868 15.4402 3.68864 15.7748C4.1186 16.1094 4.64785 16.291 5.19266 16.291C5.73746 16.291 6.26671 16.1094 6.69667 15.7748C7.12663 15.4402 7.43276 14.9718 7.56662 14.4437H11.4334C11.5672 14.9718 11.8734 15.4402 12.3033 15.7748C12.7333 16.1094 13.2625 16.291 13.8073 16.291C14.3521 16.291 14.8814 16.1094 15.3114 15.7748C15.7413 15.4402 16.0474 14.9718 16.1813 14.4437H17.4993C17.6625 14.4437 17.8191 14.3789 17.9345 14.2635C18.0498 14.1481 18.1147 13.9916 18.1147 13.8284V9.52103C18.1147 9.43767 18.0977 9.35518 18.0648 9.27859ZM5.19266 15.059C4.94925 15.059 4.71131 14.9869 4.50893 14.8516C4.30655 14.7164 4.14881 14.5242 4.05567 14.2993C3.96252 14.0745 3.93815 13.827 3.98563 13.5883C4.03312 13.3496 4.15033 13.1303 4.32244 12.9582C4.49455 12.786 4.71384 12.6688 4.95256 12.6213C5.19129 12.5739 5.43874 12.5982 5.66361 12.6914C5.88849 12.7845 6.08069 12.9423 6.21592 13.1446C6.35115 13.347 6.42332 13.585 6.42332 13.8284C6.42284 14.1546 6.29302 14.4674 6.06233 14.698C5.83164 14.9287 5.5189 15.0585 5.19266 15.059ZM13.8073 5.82902H15.2472L16.5665 8.90569H13.8073V5.82902ZM13.8073 15.059C13.5639 15.059 13.326 14.9869 13.1236 14.8516C12.9212 14.7164 12.7635 14.5242 12.6703 14.2993C12.5772 14.0745 12.5528 13.827 12.6003 13.5883C12.6478 13.3496 12.765 13.1303 12.9371 12.9582C13.1092 12.786 13.3285 12.6688 13.5672 12.6213C13.806 12.5739 14.0534 12.5982 14.2783 12.6914C14.5032 12.7845 14.6954 12.9423 14.8306 13.1446C14.9658 13.347 15.038 13.585 15.038 13.8284C15.0377 14.1547 14.9079 14.4675 14.6772 14.6982C14.4465 14.9289 14.1336 15.0587 13.8073 15.059ZM16.884 13.213H16.1813C16.0458 12.686 15.7391 12.2188 15.3095 11.8847C14.8799 11.5506 14.3516 11.3685 13.8073 11.367V10.1364H16.884V13.213Z" fill="white"/>
</svg>
