<svg width="25" height="19" viewBox="0 0 25 19" fill="none" xmlns="http://www.w3.org/2000/svg">
<path d="M1.72711 8.63553H12.0897V10.3626H1.72711V8.63553Z" fill="#FF8E28"/>
<path d="M0 4.31776H8.63553V6.04487H0V4.31776Z" fill="#FF8E28"/>
<path d="M24.1095 9.15884L21.5189 3.11397C21.4524 2.9586 21.3417 2.82618 21.2007 2.73314C21.0596 2.64011 20.8943 2.59057 20.7253 2.59066H18.1346V0.863553C18.1346 0.634524 18.0436 0.414877 17.8817 0.252929C17.7197 0.0909814 17.5001 0 17.2711 0H3.45421V1.72711H16.4075V12.5699C16.014 12.7984 15.6696 13.1025 15.3943 13.4647C15.1189 13.827 14.9179 14.2401 14.803 14.6804H9.37646C9.16627 13.8664 8.66642 13.1569 7.97059 12.6851C7.27475 12.2132 6.43072 12.0113 5.59669 12.1173C4.76265 12.2232 3.99589 12.6297 3.44012 13.2605C2.88434 13.8913 2.57772 14.7032 2.57772 15.544C2.57772 16.3847 2.88434 17.1966 3.44012 17.8274C3.99589 18.4582 4.76265 18.8647 5.59669 18.9706C6.43072 19.0766 7.27475 18.8747 7.97059 18.4028C8.66642 17.931 9.16627 17.2215 9.37646 16.4075H14.803C14.9909 17.1486 15.4205 17.806 16.0239 18.2755C16.6273 18.7451 17.37 19 18.1346 19C18.8992 19 19.6419 18.7451 20.2453 18.2755C20.8487 17.806 21.2783 17.1486 21.4662 16.4075H23.3159C23.545 16.4075 23.7646 16.3165 23.9265 16.1546C24.0885 15.9926 24.1795 15.773 24.1795 15.544V9.49908C24.1795 9.38209 24.1557 9.26633 24.1095 9.15884ZM6.04487 17.2711C5.70328 17.2711 5.36936 17.1698 5.08534 16.98C4.80132 16.7902 4.57995 16.5205 4.44923 16.2049C4.31851 15.8893 4.28431 15.542 4.35095 15.207C4.41759 14.872 4.58208 14.5642 4.82362 14.3227C5.06516 14.0812 5.3729 13.9167 5.70793 13.85C6.04295 13.7834 6.39022 13.8176 6.7058 13.9483C7.02139 14.079 7.29113 14.3004 7.48091 14.5844C7.67068 14.8684 7.77198 15.2024 7.77198 15.544C7.77152 16.0019 7.58941 16.4409 7.26561 16.7647C6.94182 17.0885 6.50279 17.2706 6.04487 17.2711ZM18.1346 4.31776H20.1553L22.0068 8.63553H18.1346V4.31776ZM18.1346 17.2711C17.793 17.2711 17.4591 17.1698 17.1751 16.98C16.8911 16.7902 16.6697 16.5205 16.539 16.2049C16.4083 15.8893 16.374 15.542 16.4407 15.207C16.5073 14.872 16.6718 14.5642 16.9134 14.3227C17.1549 14.0812 17.4626 13.9167 17.7977 13.85C18.1327 13.7834 18.48 13.8176 18.7955 13.9483C19.1111 14.079 19.3809 14.3004 19.5706 14.5844C19.7604 14.8684 19.8617 15.2024 19.8617 15.544C19.8613 16.0019 19.6791 16.4409 19.3554 16.7647C19.0316 17.0885 18.5925 17.2706 18.1346 17.2711ZM22.4524 14.6804H21.4662C21.276 13.9407 20.8457 13.285 20.2427 12.8162C19.6398 12.3474 18.8984 12.0919 18.1346 12.0897V10.3626H22.4524V14.6804Z" fill="#FF8E28"/>
</svg>
